<svg width="152" height="28" viewBox="0 0 152 28" fill="none" xmlns="http://www.w3.org/2000/svg">
<g clip-path="url(#clip0_86_1040)">
<path d="M5.33619 21.0951C5.59455 22.6728 6.89245 23.3885 8.78396 23.3885C10.3833 23.3885 11.349 22.8968 11.349 22.1095C11.349 21.509 10.7893 21.0204 9.58977 20.8337L5.979 20.1833C2.84802 19.673 0.704316 17.893 0.704316 14.691C0.704316 10.8635 3.93064 8.60742 8.71937 8.60742C12.5424 8.60742 16.8851 10.1073 17.1589 14.915H11.7919C11.6843 13.5272 10.4202 12.8862 8.75013 12.8862C7.19079 12.8862 6.48647 13.4898 6.48647 14.2056C6.48647 14.8061 6.93244 15.3663 8.33184 15.6276L11.7181 16.1815C15.1013 16.8039 17.3249 18.4718 17.3249 21.6988C17.3249 25.9059 13.5758 27.8601 8.88238 27.8601C4.18899 27.8601 0.35062 25.8904 0 21.0422L5.33619 21.0951Z" fill="white"/>
<path d="M50.2064 17.5316V27.9313H44.1597V18.5087C44.1597 15.9197 42.9295 14.6781 40.9272 14.6781C40.0045 14.6781 39.0819 15.092 38.1838 16.1811C38.2176 16.6292 38.2576 17.0835 38.2576 17.5347V27.9344H32.2417V18.5087C32.2417 15.9197 30.9807 14.6781 29.0154 14.6781C28.0927 14.6781 27.1977 15.1293 26.3057 16.2931V27.9344H20.2991V9.72101H26.3057V10.8101C27.5304 9.68437 29.1428 9.08991 30.7961 9.15466C31.8397 9.12278 32.8773 9.325 33.8344 9.7468C34.7916 10.1686 35.6446 10.7995 36.3323 11.5943C37.1815 10.7777 38.1837 10.1412 39.2796 9.72227C40.3756 9.30329 41.5434 9.11031 42.7142 9.15466C47.0139 9.15466 50.2064 12.3474 50.2064 17.5316Z" fill="white"/>
<path d="M73.0336 27.6235H67.0176V26.6091C65.5441 27.5426 63.835 28.0246 62.0967 27.9969C57.2341 27.9969 53.1528 23.9049 53.1528 18.4966C53.1528 13.0883 57.2341 8.99627 62.0967 8.99627C63.8355 8.96827 65.545 9.45147 67.0176 10.3872V9.41325H73.0336V27.6235ZM67.0176 21.3159V15.6835C66.5666 15.1233 65.994 14.6758 65.3443 14.3757C64.6947 14.0757 63.9854 13.9311 63.2715 13.9534C60.8111 13.9534 59.0518 15.9823 59.0518 18.4966C59.0518 21.0109 60.8326 23.0056 63.2715 23.0056C63.9825 23.0353 64.6905 22.8982 65.3404 22.6051C65.9903 22.312 66.5643 21.8707 67.0176 21.3159Z" fill="white"/>
<path d="M89.3313 15.2008C86.3971 15.3128 84.5395 16.1001 83.1308 17.5315V27.9312H77.1149V9.72088H83.1247V11.6689C84.8394 10.154 87.0558 9.34941 89.3313 9.41593V15.2008Z" fill="white"/>
<path d="M129.945 9.70898H123.935V27.9224H129.945V9.70898Z" fill="white"/>
<path d="M127.466 -0.000434826C127.306 -0.0128759 127.146 -0.0128759 126.986 -0.000434826H126.903C126.455 -0.0145439 126.009 0.0607317 125.591 0.221089C125.172 0.381446 124.788 0.62374 124.462 0.934122C124.136 1.2445 123.873 1.61689 123.69 2.02998C123.506 2.44308 123.404 2.88879 123.391 3.34164C123.391 3.37898 123.391 3.41632 123.391 3.45367C123.391 5.39232 124.928 6.85487 126.906 6.85487C127.803 6.93038 128.693 6.64217 129.381 6.05363C130.068 5.4651 130.496 4.62444 130.571 3.71661C130.645 2.80878 130.36 1.90813 129.779 1.2128C129.197 0.517472 128.366 0.0844156 127.469 0.00890058L127.466 -0.000434826Z" fill="white"/>
<path d="M119.927 21.8263C118.879 22.0737 117.81 22.2258 116.735 22.2806C114.954 22.2806 113.921 21.3751 113.921 19.536V14.3144H120.047L119.872 9.09277H95.2211L91.7026 14.3144H95.2211V19.7258C95.2211 24.6424 97.9738 27.8725 102.32 27.8725C104.175 27.8969 106.021 27.5926 107.773 26.9732L107.105 21.8263C106.058 22.0737 104.99 22.2258 103.916 22.2806C102.132 22.2806 101.102 21.3751 101.102 19.536V14.3144H107.893V19.7258C107.893 24.6424 110.787 27.8725 115.13 27.8725C117.031 27.8972 118.923 27.5931 120.724 26.9732L119.927 21.8263Z" fill="white"/>
<path d="M151.994 18.0859C151.994 12.6029 148.023 8.95898 142.792 8.95898C137.037 8.95898 133.214 12.9421 133.214 18.4593C133.214 23.9765 137.148 28.0063 143.062 28.0063C147.513 28.0063 150.963 25.6414 151.819 21.8854H145.87C145.35 22.7132 144.385 23.1986 143.124 23.1986C140.82 23.1986 139.562 21.9228 139.076 20.2704H151.935L151.895 20.1584C151.984 19.4767 152.018 18.7887 151.997 18.1015L151.994 18.0859ZM138.999 16.7011C139.448 14.8621 140.746 13.6609 142.785 13.6609C144.714 13.6609 146.015 14.7283 146.35 16.7011H138.999Z" fill="white"/>
</g>
<defs>
<clipPath id="clip0_86_1040">
<rect width="152" height="28" fill="white"/>
</clipPath>
</defs>
</svg>
